<svg width="73" height="16" viewBox="0 0 73 16" fill="none" xmlns="http://www.w3.org/2000/svg">
<path d="M7.06201 9.15527H2.81299V12.7363H7.84131V15H0.0854492V1.49219H7.82275V3.76514H2.81299V6.95654H7.06201V9.15527ZM12.0439 15H9.40918V0.75H12.0439V15ZM18.1299 15.1855C16.7816 15.1855 15.7301 14.7835 14.9756 13.9795C14.221 13.1755 13.8438 12.0251 13.8438 10.5283V9.73047C13.8438 8.14714 14.1901 6.92562 14.8828 6.06592C15.5755 5.20622 16.5682 4.77637 17.8608 4.77637C19.1226 4.77637 20.0719 5.18148 20.709 5.9917C21.346 6.79574 21.6707 7.98942 21.6831 9.57275V10.8623H16.46C16.4971 11.6045 16.661 12.1488 16.9517 12.4951C17.2424 12.8353 17.6908 13.0054 18.2969 13.0054C19.1751 13.0054 19.908 12.7054 20.4956 12.1055L21.5254 13.6919C21.2038 14.1372 20.7368 14.499 20.1245 14.7773C19.5122 15.0495 18.8473 15.1855 18.1299 15.1855ZM16.4785 9.02539H19.104V8.78418C19.0916 8.18424 18.9927 7.72965 18.8071 7.42041C18.6216 7.11117 18.3 6.95654 17.8423 6.95654C17.3846 6.95654 17.0506 7.12044 16.8403 7.44824C16.6362 7.77604 16.5156 8.30176 16.4785 9.02539ZM26.2197 2.49414V4.96191H27.5649V6.93799H26.2197V11.9199C26.2197 12.3158 26.2723 12.5879 26.3774 12.7363C26.4888 12.8848 26.6991 12.959 27.0083 12.959C27.2619 12.959 27.4691 12.9373 27.6299 12.894L27.6113 14.9351C27.166 15.1021 26.6836 15.1855 26.1641 15.1855C24.4694 15.1855 23.6128 14.2145 23.5942 12.2725V6.93799H22.4346V4.96191H23.5942V2.49414H26.2197ZM33.9663 7.49463L33.0942 7.42041C32.3768 7.42041 31.8913 7.73584 31.6377 8.3667V15H29.0029V4.96191H31.48L31.5542 6.04736C31.9686 5.20003 32.5407 4.77637 33.2705 4.77637C33.5674 4.77637 33.8086 4.81657 33.9941 4.89697L33.9663 7.49463ZM34.6807 9.65625C34.6807 8.13477 35.0394 6.94108 35.7568 6.0752C36.4743 5.20931 37.467 4.77637 38.7349 4.77637C40.0151 4.77637 41.014 5.20931 41.7314 6.0752C42.4489 6.94108 42.8076 8.14095 42.8076 9.6748V10.3149C42.8076 11.8426 42.452 13.0363 41.7407 13.896C41.0295 14.7557 40.0337 15.1855 38.7534 15.1855C37.467 15.1855 36.465 14.7557 35.7476 13.896C35.0363 13.0301 34.6807 11.8302 34.6807 10.2964V9.65625ZM37.3154 10.3149C37.3154 12.1086 37.7948 13.0054 38.7534 13.0054C39.6379 13.0054 40.1141 12.257 40.1821 10.7603L40.1914 9.65625C40.1914 8.74089 40.0646 8.06364 39.811 7.62451C39.5575 7.1792 39.1987 6.95654 38.7349 6.95654C38.2896 6.95654 37.9401 7.1792 37.6865 7.62451C37.4391 8.06364 37.3154 8.74089 37.3154 9.65625V10.3149Z" fill="#333333"/>
<path d="M54.0889 9.46143C54.0889 11.2736 53.659 12.6807 52.7993 13.6826C51.9458 14.6846 50.7583 15.1855 49.2368 15.1855C47.7215 15.1855 46.5309 14.6908 45.665 13.7012C44.7992 12.7054 44.36 11.3138 44.3477 9.52637V7.21631C44.3477 5.36084 44.7775 3.91357 45.6372 2.87451C46.4969 1.82926 47.6906 1.30664 49.2183 1.30664C50.7212 1.30664 51.9056 1.81999 52.7715 2.84668C53.6374 3.86719 54.0765 5.30208 54.0889 7.15137V9.46143ZM51.3521 7.19775C51.3521 5.97933 51.1789 5.07324 50.8325 4.47949C50.4862 3.88574 49.9481 3.58887 49.2183 3.58887C48.4946 3.58887 47.9596 3.87646 47.6133 4.45166C47.2669 5.02067 47.0876 5.88965 47.0752 7.05859V9.46143C47.0752 10.6427 47.2515 11.5148 47.604 12.0776C47.9565 12.6343 48.5008 12.9126 49.2368 12.9126C49.9481 12.9126 50.4769 12.6405 50.8232 12.0962C51.1696 11.5457 51.3459 10.6953 51.3521 9.54492V7.19775ZM58.3193 4.96191L58.3936 5.95459C58.9873 5.16911 59.7635 4.77637 60.7222 4.77637C62.4478 4.77637 63.3353 5.98551 63.3848 8.40381V15H60.75V8.59863C60.75 8.02962 60.6634 7.61833 60.4902 7.36475C60.3232 7.10498 60.0264 6.9751 59.5996 6.9751C59.1234 6.9751 58.7523 7.2194 58.4863 7.70801V15H55.8516V4.96191H58.3193ZM69.3223 15.1855C67.974 15.1855 66.9225 14.7835 66.168 13.9795C65.4134 13.1755 65.0361 12.0251 65.0361 10.5283V9.73047C65.0361 8.14714 65.3825 6.92562 66.0752 6.06592C66.7679 5.20622 67.7606 4.77637 69.0532 4.77637C70.3149 4.77637 71.2643 5.18148 71.9014 5.9917C72.5384 6.79574 72.8631 7.98942 72.8755 9.57275V10.8623H67.6523C67.6895 11.6045 67.8534 12.1488 68.144 12.4951C68.4347 12.8353 68.8831 13.0054 69.4893 13.0054C70.3675 13.0054 71.1004 12.7054 71.688 12.1055L72.7178 13.6919C72.3962 14.1372 71.9292 14.499 71.3169 14.7773C70.7046 15.0495 70.0397 15.1855 69.3223 15.1855ZM67.6709 9.02539H70.2964V8.78418C70.284 8.18424 70.1851 7.72965 69.9995 7.42041C69.814 7.11117 69.4924 6.95654 69.0347 6.95654C68.577 6.95654 68.243 7.12044 68.0327 7.44824C67.8286 7.77604 67.708 8.30176 67.6709 9.02539Z" fill="#1C81BA"/>
</svg>
